<svg xmlns="http://www.w3.org/2000/svg" xmlns:xlink="http://www.w3.org/1999/xlink" viewBox="0 0 1507.37 767.29"><defs><style>.a{fill:#0c0c0c}.b{fill:none}.c{clip-path:url(#a)}.d{fill:#fff}.e{fill:#d9b216}.f{fill:#eb647f}.g{fill:#a449a6}.h{fill:#740b70}.i{fill:#15b5a2}.j{clip-path:url(#b)}.k{fill:#73246d}</style><clipPath id="a" transform="translate(7.37 154.7)"><rect width="1500" height="500" class="a"/></clipPath><clipPath id="b" transform="translate(7.37 154.7)"><path d="M385.92,283.1q1.95,1.61,5,4.27a65.49,65.49,0,0,0,6.9,5.29,57.7,57.7,0,0,0,11.51,6,33.4,33.4,0,0,0,12,2.16,31.26,31.26,0,0,0,9.74-1.31,16.55,16.55,0,0,0,6.21-3.46,12.24,12.24,0,0,0,3.25-5,18.5,18.5,0,0,0,1-6,8.86,8.86,0,0,0-2.68-6.31,27.85,27.85,0,0,0-6.55-4.94,56.39,56.39,0,0,0-8.09-3.7q-4.22-1.53-7.29-2.55a167.83,167.83,0,0,1-23.93-10.29A73.92,73.92,0,0,1,375.78,245a44.17,44.17,0,0,1-13.67-33,42.74,42.74,0,0,1,4.27-19.21A42.29,42.29,0,0,1,378.57,178a58.27,58.27,0,0,1,19.09-9.49,86.89,86.89,0,0,1,25-3.35,83.45,83.45,0,0,1,19.88,2.33,76.14,76.14,0,0,1,18.75,7.45q3.87,2.28,7.35,4.72c2.31,1.64,4.35,3.21,6.09,4.73a27.89,27.89,0,0,1,4.16,4.32,6.23,6.23,0,0,1,1.54,3.53,5.23,5.23,0,0,1-.74,2.73,17,17,0,0,1-2.22,2.84L460,216.32a5.58,5.58,0,0,1-3.87,1.94,5,5,0,0,1-2.91-.91c-.87-.61-1.84-1.37-2.9-2.28l-1-.91c-1.52-1.29-3.21-2.61-5.07-4a46.12,46.12,0,0,0-6-3.7,40.41,40.41,0,0,0-6.72-2.73,24.46,24.46,0,0,0-7.18-1.08,37.72,37.72,0,0,0-7.07.63,19.59,19.59,0,0,0-5.81,2,11.07,11.07,0,0,0-4,3.58,10.45,10.45,0,0,0,.12,10.92,15.68,15.68,0,0,0,4.78,4.33,44.61,44.61,0,0,0,7.92,3.75q4.73,1.77,11,3.81,12.08,4,22.28,8.36a75,75,0,0,1,17.6,10.36,42.88,42.88,0,0,1,11.57,14.27q4.15,8.31,4.16,20.14a49.75,49.75,0,0,1-5.13,22.7,51.93,51.93,0,0,1-14.07,17.34,65.92,65.92,0,0,1-21,11.1,83.76,83.76,0,0,1-26,3.92,73.64,73.64,0,0,1-25.75-4.68,98.42,98.42,0,0,1-23.59-12.55,60.28,60.28,0,0,1-7.69-6.5c-2.09-2.13-3.75-3.84-5-5.13l-.34-.35a.69.69,0,0,0-.23-.28,1.13,1.13,0,0,1-.23-.17.55.55,0,0,0-.23-.29.82.82,0,0,1-.22-.17q-2.62-2.85-2.62-4.56c0-1.3.87-2.74,2.62-4.34l19.71-18.77a7.44,7.44,0,0,1,3.87-1.71,4.28,4.28,0,0,1,2.17.68A21.38,21.38,0,0,1,385.92,283.1Zm120.34-29.69a86.36,86.36,0,0,1,11.86-44,88.43,88.43,0,0,1,13.62-17.69,84.75,84.75,0,0,1,17.62-13.59,89,89,0,0,1,20.81-8.76,87.36,87.36,0,0,1,46.35,0,88.73,88.73,0,0,1,20.87,8.76,86.49,86.49,0,0,1,31.3,31.28,90.28,90.28,0,0,1,8.78,20.82,86.91,86.91,0,0,1,0,46.3,88,88,0,0,1-8.78,20.71,85.41,85.41,0,0,1-13.63,17.52,89,89,0,0,1-17.67,13.59,87.36,87.36,0,0,1-88,0,88.07,88.07,0,0,1-31.24-31.11,84.42,84.42,0,0,1-8.78-20.71A85.83,85.83,0,0,1,506.26,253.41Zm44.1-.11a48.3,48.3,0,0,0,3.18,17.63,43.73,43.73,0,0,0,8.94,14.28,41.47,41.47,0,0,0,13.6,9.55,42.19,42.19,0,0,0,17.29,3.47,42.62,42.62,0,0,0,17.36-3.47,41.51,41.51,0,0,0,13.66-9.55,43.7,43.7,0,0,0,8.93-14.28,50.17,50.17,0,0,0,0-35.21,44.1,44.1,0,0,0-8.93-14.39,42.51,42.51,0,0,0-61.91,0,44.12,44.12,0,0,0-8.94,14.39A48.45,48.45,0,0,0,550.36,253.3ZM708.64,174a5.54,5.54,0,0,1,1.25-3.81,4.78,4.78,0,0,1,3.76-1.42h73.61a55.43,55.43,0,0,1,22,4.38A57.39,57.39,0,0,1,827.15,185a55.41,55.41,0,0,1,12,17.58,53.16,53.16,0,0,1,4.39,21.44,50.93,50.93,0,0,1-2.11,14.73,55,55,0,0,1-5.87,13.09,56.1,56.1,0,0,1-8.94,11,58.18,58.18,0,0,1-11.34,8.47l29.28,55.07c.53,1.06,1.22,2.31,2,3.75a7.75,7.75,0,0,1,1.26,3.76,3.35,3.35,0,0,1-1.2,2.78,5,5,0,0,1-3.25,1H804.36a5.7,5.7,0,0,1-3.48-1.14,5.17,5.17,0,0,1-2-3.07l-27.69-52H752.74v51.31q0,4.89-5.25,4.89H713.65a5.35,5.35,0,0,1-3.65-1.2,4.63,4.63,0,0,1-1.36-3.69Zm89.22,50.51a19.78,19.78,0,0,0-1.25-6.82,22.5,22.5,0,0,0-3.53-6.26,20.93,20.93,0,0,0-5.47-4.78,19,19,0,0,0-7.07-2.5l-6-.4c-1.86-.11-3.9-.17-6.1-.17H752.74v41.75h21c1.37,0,2.59,0,3.65-.11s2.24-.19,3.53-.34a18,18,0,0,0,7.18-2.33,18.75,18.75,0,0,0,5.36-4.67,20.67,20.67,0,0,0,3.3-6.25A22.72,22.72,0,0,0,797.86,224.51Zm92.19,58.59q1.94,1.61,5,4.27a66.37,66.37,0,0,0,6.89,5.29,57.7,57.7,0,0,0,11.51,6,33.48,33.48,0,0,0,12,2.16,31.28,31.28,0,0,0,9.75-1.31,16.55,16.55,0,0,0,6.21-3.46,12.34,12.34,0,0,0,3.25-5,18.76,18.76,0,0,0,1-6,8.89,8.89,0,0,0-2.67-6.31,27.91,27.91,0,0,0-6.56-4.94,56.39,56.39,0,0,0-8.09-3.7q-4.22-1.53-7.29-2.55A168.33,168.33,0,0,1,897,257.26,73.85,73.85,0,0,1,879.91,245a44.13,44.13,0,0,1-13.68-33,42.74,42.74,0,0,1,4.28-19.21A42.18,42.18,0,0,1,882.7,178a58.17,58.17,0,0,1,19.09-9.49,86.77,86.77,0,0,1,25-3.35,83.59,83.59,0,0,1,19.89,2.33,76.07,76.07,0,0,1,18.74,7.45q3.87,2.28,7.35,4.72c2.32,1.64,4.35,3.21,6.1,4.73a28.86,28.86,0,0,1,4.16,4.32,6.3,6.3,0,0,1,1.54,3.53,5.24,5.24,0,0,1-.75,2.73,17,17,0,0,1-2.22,2.84l-17.43,18.54a5.6,5.6,0,0,1-3.88,1.94,4.94,4.94,0,0,1-2.9-.91c-.88-.61-1.84-1.37-2.91-2.28l-1-.91c-1.52-1.29-3.21-2.61-5.07-4a46.24,46.24,0,0,0-6-3.7,40.06,40.06,0,0,0-6.72-2.73,24.46,24.46,0,0,0-7.18-1.08,37.61,37.61,0,0,0-7.06.63,19.55,19.55,0,0,0-5.82,2,11,11,0,0,0-4,3.58,10.42,10.42,0,0,0,.11,10.92,15.73,15.73,0,0,0,4.79,4.33,44,44,0,0,0,7.92,3.75q4.73,1.77,11,3.81,12.08,4,22.28,8.36a74.83,74.83,0,0,1,17.61,10.36,42.85,42.85,0,0,1,11.56,14.27Q991,273,991,284.81a49.75,49.75,0,0,1-5.13,22.7,51.8,51.8,0,0,1-14.07,17.34,65.76,65.76,0,0,1-21,11.1,83.87,83.87,0,0,1-26,3.92,73.68,73.68,0,0,1-25.75-4.68,98.8,98.8,0,0,1-23.59-12.55,60.28,60.28,0,0,1-7.69-6.5q-3.13-3.19-5-5.13l-.34-.35a.56.56,0,0,0-.23-.28,1.09,1.09,0,0,1-.22-.17.67.67,0,0,0-.23-.29.85.85,0,0,1-.23-.17q-2.62-2.85-2.62-4.56c0-1.3.87-2.74,2.62-4.34l19.71-18.77a7.43,7.43,0,0,1,3.88-1.71,4.27,4.27,0,0,1,2.16.68A22.1,22.1,0,0,1,890.05,283.1ZM1018.24,174a5.42,5.42,0,0,1,1.31-3.81,4.78,4.78,0,0,1,3.69-1.42H1136.3a5,5,0,0,1,3.87,1.48,5.55,5.55,0,0,1,1.37,4v28.14a5.87,5.87,0,0,1-1.37,3.68,4.72,4.72,0,0,1-4,1.76h-73.85V236h57a6,6,0,0,1,3.59,1,3.91,3.91,0,0,1,1.42,3.41V265a4.69,4.69,0,0,1-1.25,3.08,4.53,4.53,0,0,1-3.65,1.47h-57.09v29.13h76.58q5.13,0,5.13,5.22v28.58a2.82,2.82,0,0,1-.91,2q-.47,3.18-4.68,3.18H1023.24a5.3,5.3,0,0,1-3.63-1.2,4.63,4.63,0,0,1-1.37-3.69Z" class="b"/></clipPath></defs><rect width="1500" height="500" x="7.37" y="154.7" class="a"/><g class="c"><rect width="1500" height="500" x="7.37" y="154.7" class="d"/><rect width="1500" height="500" x="7.37" y="154.7" class="a"/><circle cx="1076.71" cy="215.53" r="44.85" class="e"/><path d="M1312.15,317.63a76.29,76.29,0,1,0,76.3,76.29A76.29,76.29,0,0,0,1312.15,317.63Zm0,129.21a52.92,52.92,0,1,1,52.92-52.92A52.92,52.92,0,0,1,1312.15,446.84Z" class="f" transform="translate(7.37 154.7)"/><path d="M528.64,29.32a41.63,41.63,0,1,0,41.62,41.62A41.62,41.62,0,0,0,528.64,29.32Zm0,70.49a28.87,28.87,0,1,1,28.87-28.87A28.87,28.87,0,0,1,528.64,99.81Z" class="f" transform="translate(7.37 154.7)"/><path d="M1304.93,163.72a31.11,31.11,0,0,0-31.11,31.11h62.23A31.11,31.11,0,0,0,1304.93,163.72Z" class="b" transform="translate(7.37 154.7)"/><path d="M1304.93,225.94a31.11,31.11,0,0,0,31.12-31.11h-62.23A31.11,31.11,0,0,0,1304.93,225.94Z" class="b" transform="translate(7.37 154.7)"/><path d="M120.17,119.13A90.81,90.81,0,0,0,105.1-8.41L87.87,13.43a63,63,0,1,1-78,98.93L-7.37,134.2A90.81,90.81,0,0,0,120.17,119.13Z" class="g" transform="translate(7.37 154.7)"/><path d="M878.54,463.87a58.91,58.91,0,0,0,75.09-36.07l-17-6a40.86,40.86,0,0,1-77.11-27.07l-17-6A58.92,58.92,0,0,0,878.54,463.87Z" class="h" transform="translate(7.37 154.7)"/><path d="M1447.2-4A103.31,103.31,0,0,1,1344.3,99.75,103.31,103.31,0,0,1,1240.57-3.15" class="i" transform="translate(7.37 154.7)"/><path d="M481.49,488.23a58.78,58.78,0,1,1,82.79-83.45" class="e" transform="translate(7.37 154.7)"/><circle cx="117.42" cy="518.97" r="52.36" class="i"/><circle cx="304.11" cy="263.75" r="16.91" class="h"/><g class="j"><ellipse cx="570.63" cy="452.44" class="g" rx="255.27" ry="254.84"/><ellipse cx="869.04" cy="264.55" class="k" rx="255.27" ry="254.84"/><ellipse cx="1161.47" cy="512.44" class="f" rx="255.27" ry="254.84"/><ellipse cx="315.56" cy="254.84" class="i" rx="255.27" ry="254.84"/></g></g></svg>